HIERARCHY
ROOT Hips
{
  OFFSET 53.7682 85.5181 14.8445
  CHANNELS 6 Xposition Yposition Zposition Zrotation Xrotation Yrotation
  JOINT spine
  {
    OFFSET 0 6.3926 0.367606
    CHANNELS 3 Zrotation Xrotation Yrotation
    JOINT spine1
    {
      OFFSET 0 9.17611 0
      CHANNELS 3 Zrotation Xrotation Yrotation
      JOINT spine2
      {
        OFFSET 0 8.79238 0
        CHANNELS 3 Zrotation Xrotation Yrotation
        JOINT Neck
        {
          OFFSET 0 22.5737 1.07624
          CHANNELS 3 Zrotation Xrotation Yrotation
          JOINT Head
          {
            OFFSET 0 6.82011 0
            CHANNELS 3 Zrotation Xrotation Yrotation
            End Site
            {
              OFFSET 0 16.5085 -5.44427
            }
          }
        }
        JOINT RightShoulder
        {
          OFFSET -3.70221 9.49509 -0.515508
          CHANNELS 3 Zrotation Xrotation Yrotation
          JOINT RightArm
          {
            OFFSET 0 12.4537 0
            CHANNELS 3 Zrotation Xrotation Yrotation
            JOINT RightArmRoll
            {
              OFFSET 0 6.28686 0
              CHANNELS 3 Zrotation Xrotation Yrotation
              JOINT RightForeArm
              {
                OFFSET 0 18.3114 0
                CHANNELS 3 Zrotation Xrotation Yrotation
                JOINT RightForeArmRoll
                {
                  OFFSET 0 7.05483 0
                  CHANNELS 3 Zrotation Xrotation Yrotation
                  JOINT RightHand
                  {
                    OFFSET 0 14.1575 0
                    CHANNELS 3 Zrotation Xrotation Yrotation
                    End Site
                    {
                      OFFSET 0 0 0
                    }
                  }
                }
              }
            }
          }
        }
        JOINT LeftShoulder
        {
          OFFSET 3.70221 9.49509 -0.515508
          CHANNELS 3 Zrotation Xrotation Yrotation
          JOINT LeftArm
          {
            OFFSET 0 12.4537 0
            CHANNELS 3 Zrotation Xrotation Yrotation
            JOINT LeftArmRoll
            {
              OFFSET 0 6.28686 0
              CHANNELS 3 Zrotation Xrotation Yrotation
              JOINT LeftForeArm
              {
                OFFSET 0 18.3114 0
                CHANNELS 3 Zrotation Xrotation Yrotation
                JOINT LeftForeArmRoll
                {
                  OFFSET 0 7.05483 0
                  CHANNELS 3 Zrotation Xrotation Yrotation
                  JOINT LeftHand
                  {
                    OFFSET 0 14.1575 0
                    CHANNELS 3 Zrotation Xrotation Yrotation
                    End Site
                    {
                      OFFSET 0 0 0
                    }
                  }
                }
              }
            }
          }
        }
      }
    }
  }
  JOINT RightUpLeg
  {
    OFFSET -5.66616 -1.03903 -0.87161
    CHANNELS 3 Zrotation Xrotation Yrotation
    JOINT RightUpLegRoll
    {
      OFFSET 0 16.6005 0
      CHANNELS 3 Zrotation Xrotation Yrotation
      JOINT RightLeg
      {
        OFFSET 0 -20.5572 0
        CHANNELS 3 Zrotation Xrotation Yrotation
        JOINT RightLegRoll
        {
          OFFSET 0 20.6244 0
          CHANNELS 3 Zrotation Xrotation Yrotation
          JOINT RightFoot
          {
            OFFSET 0 17.1664 0
            CHANNELS 3 Zrotation Xrotation Yrotation
            JOINT RightToeBase
            {
              OFFSET 0 14.3502 0
              CHANNELS 3 Zrotation Xrotation Yrotation
              End Site
              {
                OFFSET 0.00608252 6.94971 -0.801061
              }
            }
          }
        }
      }
    }
  }
  JOINT LeftUpLeg
  {
    OFFSET 5.66616 -1.03903 -0.87161
    CHANNELS 3 Zrotation Xrotation Yrotation
    JOINT LeftUpLegRoll
    {
      OFFSET 0 16.6006 0
      CHANNELS 3 Zrotation Xrotation Yrotation
      JOINT LeftLeg
      {
        OFFSET 0 20.5571 0
        CHANNELS 3 Zrotation Xrotation Yrotation
        JOINT LeftLegRoll
        {
          OFFSET 0 20.8151 0
          CHANNELS 3 Zrotation Xrotation Yrotation
          JOINT LeftFoot
          {
            OFFSET 0 16.9757 0
            CHANNELS 3 Zrotation Xrotation Yrotation
            JOINT LeftToeBase
            {
              OFFSET 0 14.3502 0
              CHANNELS 3 Zrotation Xrotation Yrotation
              End Site
              {
                OFFSET -0.0272592 6.94971 -0.80106
              }
            }
          }
        }
      }
    }
  }
}
MOTION
Frames: 4
Frame Time: 0.00208333
54.1744 85.6662 13.9025 -0.130522 -1.44269 -2.05025 -0.529063 -1.55899 -0.424619 -1.06481 0.887885 -0.806061 -1.05578 2.53273 -0.788594 4.68493 11.4961 -2.65928 -1.56487 -0.36137 -1.3712 67.9752 0.543823 -0.789364 102.183 16.4047 6.20898 7.32428e-007 -1.14285e-006 -2.84307e-006 14.3715 4.62211 -0.959602 -6.13948e-006 4.1151e-007 -3 8.02891 -4.95144 0.697692 -56.659 0.494854 -0.616399 -108.774 15.2534 -2.7593 5.87276e-006 -2.31374e-006 4.22993e-006 -9.79244 3.03812 0.829779 -7.47733e-006 1.06425e-007 2.99999 -8.02897 -4.95148 -0.697691 172.143 0.256588 1.62243 180 7.01529e-015 178.847 178.373 5.56648 179.639 -1.26356e-006 7.58204e-007 0.0155359 -18.2635 67.7953 19.3767 8.13649 25.2327 -3.48774 -173.712 -1.84704 0.0364652 4.54188e-006 -4.6773e-006 -1.16677 -0.484056 -6.17496 0.42824 2.67679e-006 -5.44047e-006 -0.147627 20.1016 69.552 -20.9266 -8.13736 25.3448 3.34007 
54.1731 85.668 13.8931 -0.133169 -1.4408 -2.0482 -0.529271 -1.55934 -0.424634 -1.06509 0.886595 -0.805395 -1.05607 2.53144 -0.787916 4.68773 11.4933 -2.65943 -1.56699 -0.354272 -1.37039 67.9738 0.540042 -0.791141 102.186 16.4048 6.20578 7.32428e-007 -1.14285e-006 -2.84307e-006 14.3731 4.62194 -0.959494 -6.13948e-006 4.1151e-007 -3 8.02891 -4.95144 0.697692 -56.6554 0.491479 -0.614714 -108.775 15.2503 -2.76134 5.87276e-006 -2.31374e-006 4.22993e-006 -9.79144 3.03898 0.829738 -7.47733e-006 1.06425e-007 2.99999 -8.02897 -4.95148 -0.697691 172.152 0.258814 1.61192 180 7.01529e-015 178.847 178.383 5.56619 179.638 -1.26356e-006 7.58204e-007 0.0155482 -18.2607 67.7996 19.3793 8.13649 25.2327 -3.48774 -173.707 -1.84348 0.0338609 4.54188e-006 -4.6773e-006 -1.16679 -0.484265 -6.17461 0.428192 2.67679e-006 -5.44047e-006 -0.147621 20.1007 69.5511 -20.9257 -8.13732 25.3441 3.34072 
54.1683 85.6635 13.8942 -0.135888 -1.43878 -2.0462 -0.529507 -1.55963 -0.424653 -1.06547 0.885376 -0.804696 -1.05645 2.53022 -0.787201 4.69173 11.4892 -2.65979 -1.57004 -0.346088 -1.36955 67.9726 0.535465 -0.793341 102.189 16.4052 6.2021 7.32428e-007 -1.14285e-006 -2.84307e-006 14.3749 4.62162 -0.959357 -6.13948e-006 4.1151e-007 -3 8.02891 -4.95144 0.697692 -56.651 0.487517 -0.61277 -108.776 15.2475 -2.7631 5.87276e-006 -2.31374e-006 4.22993e-006 -9.79025 3.03973 0.829678 -7.47733e-006 1.06425e-007 2.99999 -8.02897 -4.95148 -0.697691 172.162 0.261202 1.60101 180 7.01529e-015 178.847 178.393 5.56594 179.637 -1.26356e-006 7.58204e-007 0.0155664 -18.2577 67.804 19.382 8.13649 25.2327 -3.48774 -173.702 -1.83973 0.0311737 4.54188e-006 -4.6773e-006 -1.16683 -0.484502 -6.17442 0.428126 2.67679e-006 -5.44047e-006 -0.147612 20.1 69.5504 -20.925 -8.13727 25.3435 3.34136 
54.1696 85.6664 13.9017 -0.138659 -1.43667 -2.04423 -0.529764 -1.55988 -0.424674 -1.06591 0.884206 -0.803973 -1.0569 2.52905 -0.786461 4.69656 11.4841 -2.66032 -1.57372 -0.337144 -1.36867 67.9714 0.530332 -0.795835 102.193 16.406 6.1981 7.32428e-007 -1.14285e-006 -2.84307e-006 14.3768 4.62118 -0.959198 -6.13948e-006 4.1151e-007 -3 8.02891 -4.95144 0.697692 -56.6459 0.483142 -0.610644 -108.777 15.2448 -2.76468 5.87276e-006 -2.31374e-006 4.22993e-006 -9.78891 3.0404 0.829604 -7.47733e-006 1.06425e-007 2.99999 -8.02897 -4.95148 -0.697691 172.171 0.263703 1.58981 180 7.01529e-015 178.847 178.403 5.56571 179.636 -1.26356e-006 7.58204e-007 0.0155888 -18.2546 67.8085 19.3848 8.13649 25.2327 -3.48774 -173.696 -1.83583 0.0284284 4.54188e-006 -4.6773e-006 -1.16687 -0.484758 -6.17434 0.428047 2.67679e-006 -5.44047e-006 -0.147601 20.0993 69.5497 -20.9242 -8.13722 25.3428 3.34202 
